<mxfile host="app.diagrams.net" modified="2024-04-24T03:40:55.745Z" agent="Mozilla/5.0 (Windows NT 10.0; Win64; x64) AppleWebKit/537.36 (KHTML, like Gecko) Chrome/124.0.0.0 Safari/537.36" etag="DEr0dEbxXRfKq5gW0PzQ" version="24.2.8" type="device" pages="2">
  <diagram name="페이지-1" id="2w6DW8QJ3bggRokX2Kto">
    <mxGraphModel dx="1434" dy="780" grid="1" gridSize="10" guides="1" tooltips="1" connect="1" arrows="1" fold="1" page="1" pageScale="1" pageWidth="827" pageHeight="1169" math="0" shadow="0">
      <root>
        <mxCell id="0" />
        <mxCell id="1" parent="0" />
        <mxCell id="FVooNhkSx36DN91_8s3P-1" value="" style="ellipse;whiteSpace=wrap;html=1;" vertex="1" parent="1">
          <mxGeometry x="80" y="180" width="110" height="220" as="geometry" />
        </mxCell>
        <mxCell id="FVooNhkSx36DN91_8s3P-2" value="" style="ellipse;whiteSpace=wrap;html=1;" vertex="1" parent="1">
          <mxGeometry x="315" y="180" width="110" height="220" as="geometry" />
        </mxCell>
        <mxCell id="FVooNhkSx36DN91_8s3P-3" value="a" style="text;html=1;align=center;verticalAlign=middle;resizable=0;points=[];autosize=1;strokeColor=none;fillColor=none;" vertex="1" parent="1">
          <mxGeometry x="120" y="230" width="30" height="30" as="geometry" />
        </mxCell>
        <mxCell id="FVooNhkSx36DN91_8s3P-4" value="b" style="text;html=1;align=center;verticalAlign=middle;resizable=0;points=[];autosize=1;strokeColor=none;fillColor=none;" vertex="1" parent="1">
          <mxGeometry x="120" y="310" width="30" height="30" as="geometry" />
        </mxCell>
        <mxCell id="FVooNhkSx36DN91_8s3P-5" value="y" style="text;html=1;align=center;verticalAlign=middle;resizable=0;points=[];autosize=1;strokeColor=none;fillColor=none;" vertex="1" parent="1">
          <mxGeometry x="355" y="275" width="30" height="30" as="geometry" />
        </mxCell>
        <mxCell id="FVooNhkSx36DN91_8s3P-6" value="x" style="text;html=1;align=center;verticalAlign=middle;resizable=0;points=[];autosize=1;strokeColor=none;fillColor=none;" vertex="1" parent="1">
          <mxGeometry x="355" y="230" width="30" height="30" as="geometry" />
        </mxCell>
        <mxCell id="FVooNhkSx36DN91_8s3P-7" value="" style="edgeStyle=none;orthogonalLoop=1;jettySize=auto;html=1;rounded=0;" edge="1" parent="1">
          <mxGeometry width="100" relative="1" as="geometry">
            <mxPoint x="160.00349227945503" y="249.15789254524756" as="sourcePoint" />
            <mxPoint x="350" y="245" as="targetPoint" />
            <Array as="points" />
          </mxGeometry>
        </mxCell>
        <mxCell id="FVooNhkSx36DN91_8s3P-8" value="" style="edgeStyle=none;orthogonalLoop=1;jettySize=auto;html=1;rounded=0;" edge="1" parent="1" target="FVooNhkSx36DN91_8s3P-9">
          <mxGeometry width="100" relative="1" as="geometry">
            <mxPoint x="170.00349227945503" y="327.07789254524755" as="sourcePoint" />
            <mxPoint x="600" y="322.92" as="targetPoint" />
            <Array as="points" />
          </mxGeometry>
        </mxCell>
        <mxCell id="FVooNhkSx36DN91_8s3P-9" value="z" style="text;html=1;align=center;verticalAlign=middle;resizable=0;points=[];autosize=1;strokeColor=none;fillColor=none;" vertex="1" parent="1">
          <mxGeometry x="355" y="350" width="30" height="30" as="geometry" />
        </mxCell>
        <mxCell id="FVooNhkSx36DN91_8s3P-10" value="집합(set) : 서로 다른 요소(element)를 가지는 collection&lt;div&gt;&lt;br&gt;&lt;/div&gt;" style="text;html=1;align=center;verticalAlign=middle;resizable=0;points=[];autosize=1;strokeColor=none;fillColor=none;" vertex="1" parent="1">
          <mxGeometry x="210" y="113" width="320" height="40" as="geometry" />
        </mxCell>
        <mxCell id="FVooNhkSx36DN91_8s3P-11" value="" style="ellipse;whiteSpace=wrap;html=1;" vertex="1" parent="1">
          <mxGeometry x="470" y="180" width="110" height="220" as="geometry" />
        </mxCell>
        <mxCell id="FVooNhkSx36DN91_8s3P-12" value="1" style="text;html=1;align=center;verticalAlign=middle;resizable=0;points=[];autosize=1;strokeColor=none;fillColor=none;" vertex="1" parent="1">
          <mxGeometry x="510" y="230" width="30" height="30" as="geometry" />
        </mxCell>
        <mxCell id="FVooNhkSx36DN91_8s3P-13" value="2" style="text;html=1;align=center;verticalAlign=middle;resizable=0;points=[];autosize=1;strokeColor=none;fillColor=none;" vertex="1" parent="1">
          <mxGeometry x="510" y="320" width="30" height="30" as="geometry" />
        </mxCell>
        <mxCell id="FVooNhkSx36DN91_8s3P-14" value="" style="edgeStyle=none;orthogonalLoop=1;jettySize=auto;html=1;rounded=0;entryX=-0.1;entryY=0.633;entryDx=0;entryDy=0;entryPerimeter=0;" edge="1" parent="1" target="FVooNhkSx36DN91_8s3P-13">
          <mxGeometry width="100" relative="1" as="geometry">
            <mxPoint x="390" y="250" as="sourcePoint" />
            <mxPoint x="510" y="370" as="targetPoint" />
            <Array as="points" />
          </mxGeometry>
        </mxCell>
        <mxCell id="FVooNhkSx36DN91_8s3P-15" value="" style="edgeStyle=none;orthogonalLoop=1;jettySize=auto;html=1;rounded=0;entryX=0.167;entryY=1.067;entryDx=0;entryDy=0;entryPerimeter=0;" edge="1" parent="1" target="FVooNhkSx36DN91_8s3P-12">
          <mxGeometry width="100" relative="1" as="geometry">
            <mxPoint x="390" y="370" as="sourcePoint" />
            <mxPoint x="490" y="370" as="targetPoint" />
            <Array as="points" />
          </mxGeometry>
        </mxCell>
        <mxCell id="FVooNhkSx36DN91_8s3P-16" value="" style="edgeStyle=none;orthogonalLoop=1;jettySize=auto;html=1;rounded=0;entryX=-0.067;entryY=0.867;entryDx=0;entryDy=0;entryPerimeter=0;" edge="1" parent="1" target="FVooNhkSx36DN91_8s3P-5">
          <mxGeometry width="100" relative="1" as="geometry">
            <mxPoint x="160" y="260" as="sourcePoint" />
            <mxPoint x="270" y="300" as="targetPoint" />
            <Array as="points" />
          </mxGeometry>
        </mxCell>
        <mxCell id="FVooNhkSx36DN91_8s3P-17" value="" style="edgeStyle=none;orthogonalLoop=1;jettySize=auto;html=1;rounded=0;" edge="1" parent="1">
          <mxGeometry width="100" relative="1" as="geometry">
            <mxPoint x="385" y="290" as="sourcePoint" />
            <mxPoint x="515" y="250" as="targetPoint" />
            <Array as="points" />
          </mxGeometry>
        </mxCell>
        <mxCell id="FVooNhkSx36DN91_8s3P-18" value="{a, x, 2}" style="text;html=1;align=center;verticalAlign=middle;resizable=0;points=[];autosize=1;strokeColor=none;fillColor=none;" vertex="1" parent="1">
          <mxGeometry x="240" y="440" width="60" height="30" as="geometry" />
        </mxCell>
        <mxCell id="FVooNhkSx36DN91_8s3P-19" value="{a, y, 1}" style="text;html=1;align=center;verticalAlign=middle;resizable=0;points=[];autosize=1;strokeColor=none;fillColor=none;" vertex="1" parent="1">
          <mxGeometry x="334" y="440" width="60" height="30" as="geometry" />
        </mxCell>
        <mxCell id="FVooNhkSx36DN91_8s3P-20" value="{b, z, 1}" style="text;html=1;align=center;verticalAlign=middle;resizable=0;points=[];autosize=1;strokeColor=none;fillColor=none;" vertex="1" parent="1">
          <mxGeometry x="425" y="440" width="60" height="30" as="geometry" />
        </mxCell>
        <mxCell id="FVooNhkSx36DN91_8s3P-21" value="튜플" style="text;html=1;align=center;verticalAlign=middle;resizable=0;points=[];autosize=1;strokeColor=none;fillColor=none;" vertex="1" parent="1">
          <mxGeometry x="245" y="490" width="50" height="30" as="geometry" />
        </mxCell>
        <mxCell id="FVooNhkSx36DN91_8s3P-24" value="relation&lt;div&gt;릴레이션&lt;/div&gt;&lt;div&gt;튜플들의 집합&lt;/div&gt;" style="text;html=1;align=center;verticalAlign=middle;resizable=0;points=[];autosize=1;strokeColor=none;fillColor=none;" vertex="1" parent="1">
          <mxGeometry x="314" y="515" width="100" height="60" as="geometry" />
        </mxCell>
        <mxCell id="FVooNhkSx36DN91_8s3P-25" value="A" style="text;html=1;align=center;verticalAlign=middle;resizable=0;points=[];autosize=1;strokeColor=none;fillColor=none;" vertex="1" parent="1">
          <mxGeometry x="120" y="140" width="30" height="30" as="geometry" />
        </mxCell>
        <mxCell id="FVooNhkSx36DN91_8s3P-26" value="B" style="text;html=1;align=center;verticalAlign=middle;resizable=0;points=[];autosize=1;strokeColor=none;fillColor=none;" vertex="1" parent="1">
          <mxGeometry x="355" y="140" width="30" height="30" as="geometry" />
        </mxCell>
        <mxCell id="FVooNhkSx36DN91_8s3P-27" value="C" style="text;html=1;align=center;verticalAlign=middle;resizable=0;points=[];autosize=1;strokeColor=none;fillColor=none;" vertex="1" parent="1">
          <mxGeometry x="510" y="140" width="30" height="30" as="geometry" />
        </mxCell>
        <mxCell id="FVooNhkSx36DN91_8s3P-28" value="도메인 A 집합은 a와 b를 가질수 있다 :" style="text;html=1;align=center;verticalAlign=middle;resizable=0;points=[];autosize=1;strokeColor=none;fillColor=none;" vertex="1" parent="1">
          <mxGeometry x="10" y="490" width="230" height="30" as="geometry" />
        </mxCell>
        <mxCell id="FVooNhkSx36DN91_8s3P-29" value="모든 가능한 수 cartesian Product : A*B*C&lt;div&gt;가능한 모든 subSet = 2*3*2= 12개&lt;/div&gt;" style="text;html=1;align=center;verticalAlign=middle;resizable=0;points=[];autosize=1;strokeColor=none;fillColor=none;" vertex="1" parent="1">
          <mxGeometry x="5" y="525" width="240" height="40" as="geometry" />
        </mxCell>
        <mxCell id="FVooNhkSx36DN91_8s3P-30" value="튜플" style="text;html=1;align=center;verticalAlign=middle;resizable=0;points=[];autosize=1;strokeColor=none;fillColor=none;" vertex="1" parent="1">
          <mxGeometry x="335" y="490" width="50" height="30" as="geometry" />
        </mxCell>
        <mxCell id="FVooNhkSx36DN91_8s3P-31" value="튜플" style="text;html=1;align=center;verticalAlign=middle;resizable=0;points=[];autosize=1;strokeColor=none;fillColor=none;" vertex="1" parent="1">
          <mxGeometry x="425" y="490" width="50" height="30" as="geometry" />
        </mxCell>
      </root>
    </mxGraphModel>
  </diagram>
  <diagram id="7xA5PARGSxJW3I7VZzi9" name="페이지-2">
    <mxGraphModel dx="1434" dy="780" grid="1" gridSize="10" guides="1" tooltips="1" connect="1" arrows="1" fold="1" page="1" pageScale="1" pageWidth="827" pageHeight="1169" math="0" shadow="0">
      <root>
        <mxCell id="0" />
        <mxCell id="1" parent="0" />
        <mxCell id="P3o7K0Yl6f9RNPoCfLkd-1" value="" style="ellipse;whiteSpace=wrap;html=1;" vertex="1" parent="1">
          <mxGeometry x="90" y="190" width="110" height="220" as="geometry" />
        </mxCell>
        <mxCell id="P3o7K0Yl6f9RNPoCfLkd-2" value="" style="ellipse;whiteSpace=wrap;html=1;" vertex="1" parent="1">
          <mxGeometry x="325" y="190" width="110" height="220" as="geometry" />
        </mxCell>
        <mxCell id="P3o7K0Yl6f9RNPoCfLkd-3" value="홍보팀" style="text;html=1;align=center;verticalAlign=middle;resizable=0;points=[];autosize=1;strokeColor=none;fillColor=none;" vertex="1" parent="1">
          <mxGeometry x="115" y="240" width="60" height="30" as="geometry" />
        </mxCell>
        <mxCell id="P3o7K0Yl6f9RNPoCfLkd-4" value="개발팀" style="text;html=1;align=center;verticalAlign=middle;resizable=0;points=[];autosize=1;strokeColor=none;fillColor=none;" vertex="1" parent="1">
          <mxGeometry x="115" y="320" width="60" height="30" as="geometry" />
        </mxCell>
        <mxCell id="P3o7K0Yl6f9RNPoCfLkd-5" value="임꺽정" style="text;html=1;align=center;verticalAlign=middle;resizable=0;points=[];autosize=1;strokeColor=none;fillColor=none;" vertex="1" parent="1">
          <mxGeometry x="350" y="285" width="60" height="30" as="geometry" />
        </mxCell>
        <mxCell id="P3o7K0Yl6f9RNPoCfLkd-6" value="홍길동" style="text;html=1;align=center;verticalAlign=middle;resizable=0;points=[];autosize=1;strokeColor=none;fillColor=none;" vertex="1" parent="1">
          <mxGeometry x="350" y="240" width="60" height="30" as="geometry" />
        </mxCell>
        <mxCell id="P3o7K0Yl6f9RNPoCfLkd-7" value="" style="edgeStyle=none;orthogonalLoop=1;jettySize=auto;html=1;rounded=0;" edge="1" parent="1">
          <mxGeometry width="100" relative="1" as="geometry">
            <mxPoint x="170.00349227945503" y="259.1578925452476" as="sourcePoint" />
            <mxPoint x="360" y="255" as="targetPoint" />
            <Array as="points" />
          </mxGeometry>
        </mxCell>
        <mxCell id="P3o7K0Yl6f9RNPoCfLkd-8" value="" style="edgeStyle=none;orthogonalLoop=1;jettySize=auto;html=1;rounded=0;" edge="1" parent="1" target="P3o7K0Yl6f9RNPoCfLkd-9">
          <mxGeometry width="100" relative="1" as="geometry">
            <mxPoint x="180.00349227945503" y="337.07789254524755" as="sourcePoint" />
            <mxPoint x="610" y="332.92" as="targetPoint" />
            <Array as="points" />
          </mxGeometry>
        </mxCell>
        <mxCell id="P3o7K0Yl6f9RNPoCfLkd-9" value="전우치" style="text;html=1;align=center;verticalAlign=middle;resizable=0;points=[];autosize=1;strokeColor=none;fillColor=none;" vertex="1" parent="1">
          <mxGeometry x="350" y="360" width="60" height="30" as="geometry" />
        </mxCell>
        <mxCell id="P3o7K0Yl6f9RNPoCfLkd-10" value="" style="ellipse;whiteSpace=wrap;html=1;" vertex="1" parent="1">
          <mxGeometry x="480" y="190" width="110" height="220" as="geometry" />
        </mxCell>
        <mxCell id="P3o7K0Yl6f9RNPoCfLkd-11" value="대리" style="text;html=1;align=center;verticalAlign=middle;resizable=0;points=[];autosize=1;strokeColor=none;fillColor=none;" vertex="1" parent="1">
          <mxGeometry x="510" y="240" width="50" height="30" as="geometry" />
        </mxCell>
        <mxCell id="P3o7K0Yl6f9RNPoCfLkd-12" value="과장" style="text;html=1;align=center;verticalAlign=middle;resizable=0;points=[];autosize=1;strokeColor=none;fillColor=none;" vertex="1" parent="1">
          <mxGeometry x="510" y="330" width="50" height="30" as="geometry" />
        </mxCell>
        <mxCell id="P3o7K0Yl6f9RNPoCfLkd-13" value="" style="edgeStyle=none;orthogonalLoop=1;jettySize=auto;html=1;rounded=0;entryX=-0.1;entryY=0.633;entryDx=0;entryDy=0;entryPerimeter=0;" edge="1" parent="1" target="P3o7K0Yl6f9RNPoCfLkd-12">
          <mxGeometry width="100" relative="1" as="geometry">
            <mxPoint x="400" y="260" as="sourcePoint" />
            <mxPoint x="520" y="380" as="targetPoint" />
            <Array as="points" />
          </mxGeometry>
        </mxCell>
        <mxCell id="P3o7K0Yl6f9RNPoCfLkd-14" value="" style="edgeStyle=none;orthogonalLoop=1;jettySize=auto;html=1;rounded=0;entryX=0.167;entryY=1.067;entryDx=0;entryDy=0;entryPerimeter=0;" edge="1" parent="1" target="P3o7K0Yl6f9RNPoCfLkd-11">
          <mxGeometry width="100" relative="1" as="geometry">
            <mxPoint x="400" y="380" as="sourcePoint" />
            <mxPoint x="500" y="380" as="targetPoint" />
            <Array as="points" />
          </mxGeometry>
        </mxCell>
        <mxCell id="P3o7K0Yl6f9RNPoCfLkd-15" value="" style="edgeStyle=none;orthogonalLoop=1;jettySize=auto;html=1;rounded=0;entryX=-0.067;entryY=0.867;entryDx=0;entryDy=0;entryPerimeter=0;" edge="1" parent="1" target="P3o7K0Yl6f9RNPoCfLkd-5">
          <mxGeometry width="100" relative="1" as="geometry">
            <mxPoint x="170" y="270" as="sourcePoint" />
            <mxPoint x="280" y="310" as="targetPoint" />
            <Array as="points" />
          </mxGeometry>
        </mxCell>
        <mxCell id="P3o7K0Yl6f9RNPoCfLkd-16" value="" style="edgeStyle=none;orthogonalLoop=1;jettySize=auto;html=1;rounded=0;" edge="1" parent="1">
          <mxGeometry width="100" relative="1" as="geometry">
            <mxPoint x="395" y="300" as="sourcePoint" />
            <mxPoint x="525" y="260" as="targetPoint" />
            <Array as="points" />
          </mxGeometry>
        </mxCell>
        <mxCell id="P3o7K0Yl6f9RNPoCfLkd-17" value="부서" style="text;html=1;align=center;verticalAlign=middle;resizable=0;points=[];autosize=1;strokeColor=none;fillColor=none;" vertex="1" parent="1">
          <mxGeometry x="120" y="150" width="50" height="30" as="geometry" />
        </mxCell>
        <mxCell id="P3o7K0Yl6f9RNPoCfLkd-18" value="이름" style="text;html=1;align=center;verticalAlign=middle;resizable=0;points=[];autosize=1;strokeColor=none;fillColor=none;" vertex="1" parent="1">
          <mxGeometry x="355" y="150" width="50" height="30" as="geometry" />
        </mxCell>
        <mxCell id="P3o7K0Yl6f9RNPoCfLkd-19" value="wㅓㄴ화번호" style="text;html=1;align=center;verticalAlign=middle;resizable=0;points=[];autosize=1;strokeColor=none;fillColor=none;" vertex="1" parent="1">
          <mxGeometry x="490" y="150" width="90" height="30" as="geometry" />
        </mxCell>
      </root>
    </mxGraphModel>
  </diagram>
</mxfile>
